<svg xmlns="http://www.w3.org/2000/svg" viewBox="0 0 512 512">
  <rect id="badge" x="0" y="0" width="512" height="512" rx="112" fill="#0B3B32"/>
  <g id="icon">
    <rect x="448" y="46" width="35" height="35" fill="#D9A441" stroke="#D9A441" stroke-width="0.75"/>
    <rect x="448" y="116" width="35" height="245" fill="#F3EAD3" stroke="#F3EAD3" stroke-width="0.75"/>
    <rect x="308" y="186" width="105" height="35" fill="#F3EAD3" stroke="#F3EAD3" stroke-width="0.75"/>
    <rect x="378" y="186" width="35" height="175" fill="#F3EAD3" stroke="#F3EAD3" stroke-width="0.75"/>
    <rect x="308" y="326" width="105" height="35" fill="#F3EAD3" stroke="#F3EAD3" stroke-width="0.75"/>
    <rect x="168" y="256" width="105" height="35" fill="#F3EAD3" stroke="#F3EAD3" stroke-width="0.75"/>
    <rect x="168" y="326" width="105" height="35" fill="#F3EAD3" stroke="#F3EAD3" stroke-width="0.75"/>
    <rect x="168" y="291" width="35" height="35" fill="#F3EAD3" stroke="#F3EAD3" stroke-width="0.75"/>
    <rect x="238" y="291" width="35" height="35" fill="#F3EAD3" stroke="#F3EAD3" stroke-width="0.75"/>
    <rect x="168" y="361" width="35" height="105" fill="#F3EAD3" stroke="#F3EAD3" stroke-width="0.75"/>
    <rect x="28" y="431" width="175" height="35" fill="#F3EAD3" stroke="#F3EAD3" stroke-width="0.75"/>
    <rect x="28" y="256" width="105" height="35" fill="#F3EAD3" stroke="#F3EAD3" stroke-width="0.75"/>
    <rect x="28" y="326" width="105" height="35" fill="#F3EAD3" stroke="#F3EAD3" stroke-width="0.75"/>
    <rect x="28" y="291" width="35" height="35" fill="#F3EAD3" stroke="#F3EAD3" stroke-width="0.75"/>
    <rect x="98" y="291" width="35" height="35" fill="#F3EAD3" stroke="#F3EAD3" stroke-width="0.75"/>
    <rect x="28" y="361" width="35" height="35" fill="#F3EAD3" stroke="#F3EAD3" stroke-width="0.75"/>
  </g>
</svg>
