<svg xmlns="http://www.w3.org/2000/svg" viewBox="0 0 512 512">
  <rect id="badge" x="0" y="0" width="512" height="512" rx="112" fill="#0B3B32"/>
  <g id="icon">
    <rect x="432" y="80" width="32" height="32" fill="#D9A441" stroke="#D9A441" stroke-width="0.75"/>
    <rect x="432" y="144" width="32" height="224" fill="#F3EAD3" stroke="#F3EAD3" stroke-width="0.75"/>
    <rect x="304" y="240" width="96" height="32" fill="#F3EAD3" stroke="#F3EAD3" stroke-width="0.75"/>
    <rect x="368" y="240" width="32" height="128" fill="#F3EAD3" stroke="#F3EAD3" stroke-width="0.75"/>
    <rect x="304" y="336" width="96" height="32" fill="#F3EAD3" stroke="#F3EAD3" stroke-width="0.75"/>
    <rect x="176" y="272" width="96" height="32" fill="#F3EAD3" stroke="#F3EAD3" stroke-width="0.75"/>
    <rect x="176" y="336" width="96" height="32" fill="#F3EAD3" stroke="#F3EAD3" stroke-width="0.75"/>
    <rect x="176" y="304" width="32" height="32" fill="#F3EAD3" stroke="#F3EAD3" stroke-width="0.75"/>
    <rect x="240" y="304" width="32" height="32" fill="#F3EAD3" stroke="#F3EAD3" stroke-width="0.75"/>
    <rect x="176" y="368" width="32" height="64" fill="#F3EAD3" stroke="#F3EAD3" stroke-width="0.75"/>
    <rect x="112" y="400" width="96" height="32" fill="#F3EAD3" stroke="#F3EAD3" stroke-width="0.75"/>
    <rect x="48" y="272" width="96" height="32" fill="#F3EAD3" stroke="#F3EAD3" stroke-width="0.75"/>
    <rect x="48" y="336" width="96" height="32" fill="#F3EAD3" stroke="#F3EAD3" stroke-width="0.75"/>
    <rect x="48" y="304" width="32" height="32" fill="#F3EAD3" stroke="#F3EAD3" stroke-width="0.75"/>
    <rect x="112" y="304" width="32" height="32" fill="#F3EAD3" stroke="#F3EAD3" stroke-width="0.75"/>
    <rect x="48" y="368" width="32" height="64" fill="#F3EAD3" stroke="#F3EAD3" stroke-width="0.75"/>
  </g>
</svg>
